<svg width="40" height="40" viewBox="0 0 40 40" fill="none" xmlns="http://www.w3.org/2000/svg">
<path opacity="0.5" d="M13.7079 38.9744C17.7898 40.3412 22.2057 40.3419 26.2881 38.9764C26.1393 39.0243 25.9812 39.0361 25.8269 39.0109C25.6726 38.9857 25.5265 38.9241 25.4007 38.8313C25.2749 38.7385 25.173 38.6172 25.1033 38.4772C25.0336 38.3372 24.9982 38.1827 25.0001 38.0264C25.0001 37.3504 25.0261 35.2004 25.0261 32.5263C25.0797 31.8488 24.9869 31.1678 24.7539 30.5293C24.521 29.8909 24.1534 29.31 23.676 28.8263C28.1261 28.3263 32.8002 26.6263 32.8002 18.9501C32.8325 16.962 32.0984 15.0376 30.7501 13.5761C31.3615 11.8485 31.29 9.9526 30.5501 8.276C30.5501 8.276 28.8741 7.72599 25.0501 10.326C21.7774 9.42591 18.3225 9.42591 15.0499 10.326C11.2239 7.74999 9.54985 8.274 9.54985 8.274C8.80979 9.95056 8.73825 11.8465 9.34984 13.5741C8.00546 15.038 7.27199 16.9608 7.29981 18.9481C7.29981 26.5983 11.9499 28.3243 16.3999 28.8243C15.6639 29.5323 15.2119 30.4823 15.1239 31.4983C14.6341 31.773 14.095 31.9485 13.5374 32.0147C12.9798 32.0809 12.4145 32.0366 11.874 31.8843C11.3335 31.732 10.8283 31.4747 10.3873 31.1271C9.94633 30.7794 9.57815 30.3483 9.30384 29.8583L9.29984 29.8483C8.9897 29.2845 8.54817 28.8037 8.01269 28.4469C7.47721 28.09 6.86357 27.8675 6.2238 27.7983C4.54978 27.8243 5.54979 28.7483 6.2498 29.1243C7.15181 29.8843 7.85582 30.8543 8.29983 31.9483C8.69983 33.0743 9.99985 35.2244 15.0239 34.2984C15.0239 35.9744 15.0499 37.5484 15.0499 38.0244C15.0499 38.5424 14.6799 39.1264 13.7099 38.9744H13.7079Z" fill="white"/>
<path d="M20.0003 0C8.95412 0 0 8.95412 0 20.0003C0 28.8464 5.75008 36.3385 13.7102 38.9765C14.6802 39.1265 15.0502 38.5445 15.0502 38.0265C15.0502 37.5505 15.0262 35.9765 15.0262 34.3005C10.0001 35.2265 8.70012 33.0765 8.30011 31.9504C7.85604 30.8567 7.15245 29.8875 6.25009 29.1264C5.55008 28.7504 4.55006 27.8264 6.22409 27.8004C7.5241 27.9404 8.67012 28.7064 9.30013 29.8504L9.30613 29.8624C9.58044 30.3524 9.94862 30.7835 10.3896 31.1312C10.8306 31.4788 11.3358 31.7361 11.8763 31.8885C12.4168 32.0408 12.982 32.0851 13.5397 32.0188C14.0973 31.9526 14.6364 31.7771 15.1262 31.5024C15.2122 30.4824 15.6662 29.5344 16.4002 28.8264C11.9502 28.3264 7.3001 26.6004 7.3001 18.9503C7.27228 16.9629 8.00574 15.0401 9.35013 13.5762C8.73874 11.8486 8.81028 9.95272 9.55013 8.27612C9.55013 8.27612 11.2242 7.75011 15.0502 10.3261C18.3228 9.42603 21.7777 9.42603 25.0503 10.3261C28.8744 7.72611 30.5504 8.27612 30.5504 8.27612C31.2904 9.95214 31.3624 11.8482 30.7504 13.5762C32.0987 15.0377 32.8328 16.9621 32.8005 18.9503C32.8005 26.6264 28.1244 28.3264 23.6763 28.8264C24.6403 29.8064 25.1343 31.1544 25.0263 32.5265C25.0263 35.2005 25.0003 37.3505 25.0003 38.0265C24.9983 38.1828 25.0335 38.3373 25.1029 38.4773C25.1723 38.6173 25.274 38.7388 25.3996 38.8318C25.5252 38.9248 25.6711 38.9866 25.8253 39.0121C25.9795 39.0376 26.1375 39.0261 26.2864 38.9785C34.2485 36.3405 40.0006 28.8484 40.0006 20.0003C40.0006 8.95412 31.0464 0 20.0003 0Z" fill="#808080"/>
</svg>
