<svg width="66" height="87" viewBox="0 0 66 87" fill="none" xmlns="http://www.w3.org/2000/svg">
<mask id="mask0" mask-type="alpha" maskUnits="userSpaceOnUse" x="0" y="0" width="66" height="87">
<path fill-rule="evenodd" clip-rule="evenodd" d="M36.5656 0.000278326C47.3337 0.0481153 58.5703 5.24832 64.0368 14.5258C68.8932 22.7676 62.056 32.4599 61.3113 41.997C60.6766 50.1242 64.0277 58.369 60.0571 65.4886C54.7524 75.0006 47.4565 86.4348 36.5656 86.3689C25.6819 86.303 20.2612 73.6194 13.3568 65.2058C7.48707 58.0531 0.968608 51.2138 0.152783 41.997C-0.734744 31.9702 2.25496 21.886 8.84911 14.2806C15.9268 6.11747 25.7615 -0.0477186 36.5656 0.000278326Z" fill="#7B9CF1"/>
</mask>
<g mask="url(#mask0)">
<path fill-rule="evenodd" clip-rule="evenodd" d="M36.5656 0.000278326C47.3337 0.0481153 58.5703 5.24832 64.0368 14.5258C68.8932 22.7676 62.056 32.4599 61.3113 41.997C60.6766 50.1242 64.0277 58.369 60.0571 65.4886C54.7524 75.0006 47.4565 86.4348 36.5656 86.3689C25.6819 86.303 20.2612 73.6194 13.3568 65.2058C7.48707 58.0531 0.968608 51.2138 0.152783 41.997C-0.734744 31.9702 2.25496 21.886 8.84911 14.2806C15.9268 6.11747 25.7615 -0.0477186 36.5656 0.000278326Z" fill="white"/>
<path opacity="0.2" d="M56.2326 24.1579V50.0976H32.6265C34.3243 50.0976 35.9839 49.5905 37.3955 48.6404C38.8072 47.6903 39.9074 46.3399 40.5571 44.7599C41.2068 43.18 41.3768 41.4414 41.0456 39.7642C40.7144 38.0869 39.8968 36.5462 38.6963 35.337C37.4958 34.1277 35.9663 33.3042 34.3012 32.9706C32.636 32.637 30.9101 32.8082 29.3415 33.4626C27.773 34.1171 26.4324 35.2253 25.4891 36.6472C24.5459 38.0692 24.0425 39.7409 24.0425 41.451H21.8965V24.1579H56.2326Z" fill="#7B9CF1"/>
<path d="M62.6706 16.0517H15.4584C14.3205 16.053 13.2296 16.5089 12.4249 17.3194C11.6203 18.1299 11.1677 19.2288 11.1664 20.375V59.2849C11.1664 59.8526 11.2775 60.4148 11.4932 60.9393C11.709 61.4638 12.0251 61.9404 12.4237 62.3418C12.8223 62.7432 13.2954 63.0617 13.8162 63.2789C14.3369 63.4961 14.8951 63.6079 15.4587 63.6079L19.0506 63.6076C19.4564 63.6075 19.8538 63.4915 20.1968 63.2731C20.5398 63.0547 20.8143 62.7428 20.9884 62.3736C22.0335 60.1557 23.6818 58.2819 25.7419 56.9699C27.8019 55.6579 30.1892 54.9614 32.6265 54.9614C35.0638 54.9614 37.4511 55.6579 39.5111 56.9699C41.5712 58.2819 43.2195 60.1557 44.2646 62.3736C44.4387 62.7428 44.7132 63.0547 45.0563 63.2732C45.3993 63.4916 45.7968 63.6076 46.2027 63.6076L62.6706 63.6079C63.8085 63.6066 64.8995 63.1507 65.7041 62.3402C66.5087 61.5297 66.9613 60.4308 66.9626 59.2846V20.375C66.9613 19.2288 66.5087 18.1299 65.7041 17.3194C64.8995 16.5089 63.8085 16.053 62.6706 16.0517ZM26.1885 44.1531C26.1885 42.8705 26.5661 41.6167 27.2735 40.5503C27.9809 39.4838 28.9864 38.6526 30.1628 38.1618C31.3392 37.671 32.6336 37.5425 33.8825 37.7928C35.1313 38.043 36.2785 38.6606 37.1789 39.5676C38.0792 40.4745 38.6924 41.63 38.9408 42.8879C39.1892 44.1459 39.0617 45.4498 38.5744 46.6348C38.0872 47.8197 37.262 48.8325 36.2033 49.5451C35.1445 50.2577 33.8998 50.638 32.6265 50.638C30.9196 50.6361 29.2832 49.9522 28.0762 48.7365C26.8693 47.5208 26.1904 45.8724 26.1885 44.1531ZM62.6706 59.2846L47.4967 59.2843C45.7041 56.1808 43.0022 53.712 39.7614 52.2166C41.3861 50.7596 42.5327 48.8397 43.0494 46.7114C43.5661 44.583 43.4284 42.3468 42.6546 40.299C41.8808 38.2513 40.5074 36.4889 38.7164 35.2453C36.9255 34.0017 34.8017 33.3358 32.6265 33.3358C30.4513 33.3358 28.3274 34.0017 26.5365 35.2453C24.7456 36.4889 23.3722 38.2513 22.5984 40.299C21.8246 42.3468 21.6869 44.583 22.2036 46.7114C22.7202 48.8397 23.8669 50.7596 25.4916 52.2166C22.2508 53.7121 19.5488 56.181 17.7563 59.2846H15.4584V20.375H62.6706V59.2846ZM19.7504 31.1832V26.8599C19.7504 26.2866 19.9765 25.7368 20.379 25.3314C20.7814 24.926 21.3273 24.6983 21.8965 24.6983H56.2326C56.8017 24.6983 57.3476 24.926 57.75 25.3314C58.1525 25.7368 58.3786 26.2866 58.3786 26.8599V52.7997C58.3786 53.373 58.1525 53.9228 57.75 54.3282C57.3476 54.7336 56.8017 54.9613 56.2326 54.9613H51.9406C51.3714 54.9613 50.8256 54.7336 50.4231 54.3282C50.0206 53.9228 49.7946 53.373 49.7946 52.7997C49.7946 52.2264 50.0206 51.6765 50.4231 51.2711C50.8256 50.8658 51.3714 50.638 51.9406 50.638H54.0866V29.0216H24.0425V31.1832C24.0425 31.7565 23.8164 32.3064 23.4139 32.7117C23.0115 33.1171 22.4656 33.3449 21.8965 33.3449C21.3273 33.3449 20.7814 33.1171 20.379 32.7117C19.9765 32.3064 19.7504 31.7565 19.7504 31.1832Z" fill="#7B9CF1"/>
</g>
</svg>
